<svg width="122" height="39" viewBox="0 0 122 39" fill="none" xmlns="http://www.w3.org/2000/svg">
<path fill-rule="evenodd" clip-rule="evenodd" d="M60.9389 0L54.437 9.03686H67.5072L60.9389 0Z" fill="#E1001A"/>
<path fill-rule="evenodd" clip-rule="evenodd" d="M120.737 26.1141C120.119 23.7818 118.687 22.0143 116.869 20.8199C114.995 19.6011 112.792 18.9855 110.557 19.0557C108.261 19.1172 105.867 19.863 104.065 21.2152C102.264 22.5691 101.052 24.5293 100.518 26.7021C99.9802 28.875 100.12 31.2571 101.017 33.2588C101.917 35.2589 103.572 36.8802 105.332 37.8105C107.093 38.7408 108.964 38.9816 110.648 38.9966C112.331 39.0132 113.829 38.8022 115.516 37.97C117.207 37.1394 119.09 35.6875 120.129 33.513C121.167 31.3402 121.358 28.4464 120.737 26.1141ZM116.79 31.3236C116.411 32.5861 115.707 33.6874 114.614 34.4798C113.517 35.2739 112.029 35.7589 110.648 35.7839C109.27 35.8138 107.99 35.3852 106.967 34.6243C105.909 33.8279 105.141 32.7081 104.778 31.4349C104.379 30.0993 104.359 28.5145 104.628 27.1224C104.899 25.732 105.459 24.531 106.514 23.6289C107.568 22.7286 109.117 22.1256 110.633 22.109C112.14 22.1011 113.599 22.6326 114.748 23.6073C115.851 24.5542 116.565 25.8749 116.896 27.2503C117.228 28.6258 117.172 30.0577 116.791 31.3236H116.79ZM59.1399 19.6836C59.0951 19.6303 59.0326 19.5949 58.9638 19.584H55.5484C55.4703 19.605 55.3962 19.6386 55.3291 19.6836C55.2935 19.7219 55.2664 19.7671 55.2494 19.8165C55.2241 19.903 55.2102 19.9923 55.2078 20.0823V31.699C55.2078 31.7272 55.1663 32.1043 55.1364 32.3834C55.1082 32.6558 55.0899 32.8319 55.045 33.0479C54.9882 33.3184 54.8896 33.5785 54.7527 33.8187C54.5827 34.0858 54.3707 34.3237 54.1247 34.523C53.9099 34.7048 53.6785 34.866 53.4337 35.0048C53.1396 35.1709 52.7941 35.337 52.4204 35.4533C52.0333 35.5745 51.613 35.636 51.2409 35.6692C50.9054 35.6942 50.6097 35.6991 50.2807 35.6792C49.9319 35.6626 49.5432 35.6128 49.191 35.533C48.5305 35.3837 47.9153 35.0784 47.3969 34.6426C47.0526 34.3223 46.788 33.9257 46.6245 33.4848C46.5132 33.1891 46.3819 32.7505 46.3819 32.4881V20.084C46.3794 20.0025 46.3671 19.9216 46.3454 19.8431C46.3358 19.8008 46.3171 19.7611 46.2906 19.7268C46.2692 19.7004 46.2433 19.6779 46.2142 19.6604C46.1837 19.6422 46.1497 19.6309 46.1145 19.6271H42.6974C42.6549 19.6384 42.6132 19.6529 42.5728 19.6703C42.5385 19.6832 42.5065 19.7018 42.4781 19.7252C42.4383 19.7691 42.4098 19.8222 42.3951 19.8796C42.3719 19.9607 42.3596 20.0445 42.3585 20.1288V32.7904C42.3585 33.106 42.3835 33.405 42.4366 33.7256C42.4964 34.0745 42.5894 34.4483 42.7024 34.7838C42.8104 35.1028 42.935 35.3868 43.1177 35.6726C43.3204 35.9882 43.5928 36.3038 43.8918 36.5978C44.5206 37.213 45.2578 37.7064 46.0663 38.053C46.465 38.2291 46.8736 38.3803 47.3122 38.5049C47.7773 38.6378 48.2724 38.7441 48.7657 38.8255C49.2442 38.9086 49.7193 38.965 50.1611 38.975C50.5814 38.9883 50.9751 38.9584 51.4104 38.9019C51.8821 38.8454 52.4104 38.759 52.8456 38.676C53.5953 38.5412 54.3298 38.3326 55.0384 38.053C55.5136 37.871 55.9698 37.6429 56.4006 37.372C56.8109 37.1062 57.1697 36.7905 57.5135 36.4467C57.8458 36.1111 58.1647 35.749 58.4006 35.4068C58.6066 35.1077 58.7495 34.8287 58.8541 34.4815C58.9704 34.0994 59.0369 33.6293 59.0817 33.2356C59.147 32.5351 59.198 31.8334 59.2345 31.1309V20.0424C59.2345 19.9926 59.2179 19.8763 59.1963 19.8016C59.1862 19.7595 59.1676 19.7199 59.1415 19.6853L59.1399 19.6836ZM98.8838 19.5773H82.9862C82.8865 19.5773 82.7287 19.5723 82.6241 19.6604C82.5664 19.7192 82.5237 19.7909 82.4995 19.8697V22.2369C82.4995 22.3532 82.526 22.486 82.6108 22.5475C82.6938 22.609 82.8384 22.6057 82.9879 22.6057H88.1907C88.3851 22.6057 88.6558 22.6322 88.8004 22.8249C88.8904 22.9782 88.9428 23.1508 88.9532 23.3283V38.1411C88.9532 38.2341 88.9316 38.3986 89.0196 38.47C89.0911 38.5248 89.2406 38.5148 89.2422 38.5148H92.5198C92.6194 38.5148 92.7357 38.5016 92.8055 38.3986C92.8552 38.3001 92.8851 38.1929 92.8935 38.0829V23.2103C92.8935 23.1937 92.9052 22.898 93.043 22.7419C93.2092 22.5492 93.558 22.5658 93.7623 22.5658H98.7891C99.3207 22.5492 99.3738 22.3831 99.3738 22.1173V19.9046C99.3771 19.677 99.2791 19.5723 98.8854 19.5723L98.8838 19.5773ZM79.5608 19.7949C79.5544 19.7631 79.541 19.7332 79.5214 19.7073C79.5019 19.6814 79.4767 19.6603 79.4479 19.6454C79.3794 19.5999 79.3005 19.5725 79.2186 19.5657H76.0856C75.9793 19.5657 75.8697 19.5574 75.7816 19.6155C75.7222 19.6541 75.6772 19.7114 75.6537 19.7783C75.6089 19.8946 75.6205 20.0375 75.6205 20.1222V31.4731C75.6105 31.6226 75.5873 31.6774 75.5474 31.7106C75.5265 31.7291 75.5004 31.7407 75.4726 31.7438C75.4323 31.7517 75.3906 31.7433 75.3564 31.7206C75.2897 31.6743 75.2304 31.6183 75.1803 31.5545L66.5836 19.8597C66.5504 19.8481 66.4906 19.7318 66.3544 19.6604C66.2073 19.5933 66.0455 19.5647 65.8843 19.5773H63.2314C63.1533 19.5906 63.0702 19.5723 62.9739 19.6072C62.888 19.6417 62.8133 19.6992 62.7579 19.7733C62.6616 19.9062 62.6848 20.0524 62.6682 20.2518V38.0098C62.6682 38.1211 62.6466 38.2723 62.738 38.3753C62.8177 38.465 62.9872 38.5165 62.9872 38.5165H66.0105C66.1534 38.5165 66.376 38.5398 66.4973 38.4119C66.5698 38.313 66.6166 38.1977 66.6335 38.0763V26.2653C66.6335 26.1988 66.6335 26.0161 66.6667 25.923C66.6866 25.8666 66.7198 25.84 66.7531 25.8284C66.7863 25.8167 66.8278 25.8217 66.8793 25.8715C66.9624 25.9463 67.082 26.1207 67.0753 26.1307L75.863 38.2241C75.9129 38.2906 76.0159 38.4334 76.1172 38.4733C76.2102 38.5065 76.29 38.5099 76.2933 38.5099H79.1837C79.2464 38.5067 79.3082 38.4932 79.3665 38.47C79.423 38.4467 79.4612 38.4418 79.516 38.3537C79.5582 38.2684 79.5809 38.1748 79.5824 38.0796V20.0291C79.5807 19.9522 79.5724 19.8755 79.5575 19.7999L79.5608 19.7949ZM18.2314 31.2654C18.1715 31.046 18.0891 30.8334 17.9856 30.6308C17.8772 30.4342 17.7551 30.2455 17.6201 30.066C17.5095 29.9046 17.3874 29.7514 17.2547 29.6076C17.0891 29.4354 16.9102 29.2766 16.7198 29.1325C16.3004 28.8156 15.8495 28.5429 15.3742 28.3185C15.1453 28.2114 14.9126 28.1128 14.6765 28.0228C14.3906 27.9143 14.0989 27.8216 13.8027 27.7454C13.4126 27.6463 13.0192 27.5604 12.6233 27.4879C12.1833 27.4051 11.7425 27.3265 11.301 27.252C10.8409 27.1717 10.3802 27.0953 9.91887 27.0228C9.45872 26.948 9.00522 26.8865 8.62314 26.8184C8.23775 26.752 7.9188 26.6855 7.60649 26.6158C7.31233 26.5581 7.02033 26.49 6.73105 26.4114C6.31972 26.2945 5.93381 26.1018 5.59314 25.8433C5.50688 25.7815 5.43211 25.705 5.3722 25.6174C5.23588 25.4052 5.14692 25.1661 5.11139 24.9164C5.06902 24.5996 5.09739 24.2773 5.19445 23.9728C5.23178 23.844 5.28895 23.7218 5.36389 23.6107C5.44031 23.4994 5.53832 23.3914 5.6546 23.2834C5.77088 23.1771 5.90378 23.0724 6.04 22.9794C6.18743 22.8809 6.34114 22.7921 6.50015 22.7136C6.94907 22.4813 7.43082 22.3188 7.92877 22.2319C8.21449 22.182 8.53178 22.1405 8.81418 22.1206C9.08784 22.1001 9.36258 22.0984 9.63647 22.1156C9.93548 22.1355 10.2877 22.1704 10.5833 22.2186C10.8774 22.2684 11.1149 22.3316 11.3724 22.4179C11.6299 22.5043 11.9073 22.6173 12.1532 22.717C12.4023 22.8233 12.6133 22.9213 12.8459 23.0608C13.2779 23.3226 13.6729 23.641 14.0203 24.0077C14.1532 24.1489 14.2629 24.2702 14.3393 24.3482C14.3862 24.3996 14.4398 24.4443 14.4988 24.4811C14.543 24.5064 14.5924 24.5212 14.6433 24.5243C14.7238 24.5274 14.8037 24.5103 14.8759 24.4745L17.4557 22.6638C17.5038 22.6273 17.5435 22.5808 17.572 22.5276C17.6002 22.4728 17.6118 22.4229 17.572 22.3415C17.4391 22.0857 16.7879 21.5209 16.1982 21.1006C15.7009 20.7451 15.1727 20.4348 14.62 20.1737C14.2267 19.9746 13.8178 19.8079 13.3974 19.6753C12.7912 19.4877 12.1722 19.3444 11.5452 19.2467C10.956 19.1508 10.3596 19.1063 9.76272 19.1138C9.08186 19.1314 8.40222 19.1813 7.7261 19.2633C7.15631 19.3298 6.66294 19.3962 6.13136 19.5225C5.50866 19.6716 4.9009 19.8773 4.31568 20.1371C3.67779 20.4162 3.0482 20.7684 2.55483 21.192C2.16682 21.5309 1.82997 21.9243 1.55479 22.3598C1.37756 22.6318 1.22204 22.9173 1.08966 23.2136C0.991466 23.4262 0.917357 23.6491 0.868719 23.8781C0.813899 24.1389 0.78566 24.4479 0.75742 24.6589C0.737486 24.8184 0.719211 24.9247 0.719211 25.1024C0.719211 25.4014 0.765726 25.8948 0.848786 26.2719C0.923539 26.6008 1.02653 26.8367 1.18102 27.1075C1.37372 27.4364 1.64283 27.8168 1.99999 28.164C2.40199 28.556 2.91696 28.9049 3.38874 29.1441C3.80736 29.36 4.19276 29.4929 4.64792 29.6292C5.19279 29.792 5.84065 29.9614 6.52008 30.0943C7.2427 30.2272 8.00186 30.3185 8.68793 30.4066C9.29426 30.4863 9.84245 30.5644 10.374 30.6475C10.8525 30.7255 11.3209 30.8003 11.7279 30.9083C12.0718 30.998 12.3758 31.1076 12.6366 31.2239C12.8592 31.3236 13.0485 31.4232 13.2479 31.5761C13.4771 31.7488 13.7197 31.9914 13.8625 32.2605C13.9904 32.5097 14.0286 32.7821 14.0453 33.0412C14.0619 33.2771 14.0519 33.503 14.0071 33.7223C13.9615 33.9709 13.8605 34.206 13.7114 34.4101C13.4727 34.7226 13.1774 34.9874 12.8409 35.1908C12.5087 35.3935 12.1648 35.5164 11.7661 35.6161C11.3342 35.7257 10.8358 35.8104 10.4305 35.8569C10.0817 35.8968 9.80259 35.9068 9.44709 35.8952C9.0318 35.8785 8.52181 35.8237 8.12977 35.7822C7.83741 35.7538 7.54682 35.7094 7.25931 35.6493C6.83846 35.5626 6.42433 35.446 6.02006 35.3004C5.73268 35.1925 5.52835 35.0812 5.29745 34.9682C5.02501 34.832 4.72101 34.6891 4.36718 34.4101C3.9685 34.0944 3.50835 33.5961 3.35386 33.4532C3.33073 33.4245 3.30112 33.4018 3.26747 33.3868C3.23157 33.3741 3.19414 33.3663 3.15618 33.3635C3.10367 33.3589 3.05087 33.3589 2.99836 33.3635L0.0514165 35.3121C0.0121272 35.3657 -0.00565436 35.4321 0.00157976 35.4981C0.0098857 35.5513 0.0281573 35.5928 0.131151 35.7141C0.230822 35.8337 0.42186 36.0297 0.58964 36.2041C0.755759 36.3752 0.908588 36.5198 1.12122 36.6942C1.33717 36.8686 1.61293 37.0729 1.94849 37.2756C2.28073 37.4749 2.67277 37.6776 3.10135 37.8603C4.03001 38.2548 4.99621 38.5542 5.98518 38.7541C6.49184 38.8487 7.00348 38.9002 7.51845 38.9401C8.03342 38.9783 8.55503 39.0032 9.03013 38.9999C10.0189 38.9728 11.0036 38.8622 11.9738 38.6693C12.4762 38.5691 12.9726 38.4404 13.4605 38.2839C13.9323 38.1311 14.3775 37.9584 14.7862 37.764C15.1948 37.5646 15.5669 37.3454 15.8576 37.161C16.1483 36.9749 16.356 36.8238 16.5802 36.6194C17.0084 36.2141 17.3926 35.7648 17.7264 35.2789C17.8626 35.0613 17.9782 34.8317 18.072 34.5928C18.2514 34.1462 18.3558 33.673 18.381 33.1924C18.422 32.7682 18.4147 32.3408 18.3594 31.9183C18.3316 31.6979 18.2883 31.4797 18.2298 31.2654H18.2314ZM38.7571 19.6869C38.7135 19.633 38.6513 19.5974 38.5827 19.5873H35.1689C35.125 19.5976 35.0822 19.612 35.041 19.6305C35.0067 19.6424 34.975 19.661 34.948 19.6853C34.9122 19.7234 34.885 19.7687 34.8682 19.8182C34.8419 19.9044 34.8274 19.9938 34.8251 20.084V31.7007C34.8251 31.7289 34.7835 32.106 34.7536 32.3851C34.7254 32.6575 34.7104 32.8336 34.6623 33.0495C34.6057 33.3202 34.5071 33.5803 34.3699 33.8203C34.2007 34.0875 33.9892 34.3254 33.7436 34.5247C33.5243 34.7107 33.3067 34.8569 33.0509 35.0064C32.7305 35.1924 32.3907 35.3428 32.0376 35.4549C31.6505 35.5762 31.2302 35.6377 30.8581 35.6709C30.5226 35.6958 30.2269 35.7008 29.8996 35.6809C29.5318 35.6631 29.1661 35.6142 28.8066 35.5347C28.4801 35.4613 28.1634 35.3498 27.863 35.2024C27.5547 35.0572 27.2684 34.8693 27.0125 34.6443C26.6692 34.323 26.4048 33.9268 26.24 33.4864C26.1304 33.1907 25.9992 32.7522 25.9992 32.4897V20.0856C25.9992 20.0358 25.9825 19.9195 25.961 19.8448C25.9501 19.8026 25.9309 19.763 25.9045 19.7285C25.8825 19.702 25.8561 19.6795 25.8264 19.662C25.7959 19.644 25.7619 19.6327 25.7267 19.6288H22.3113C22.2715 19.6388 22.2399 19.6421 22.2 19.6587C22.1608 19.6751 22.1243 19.6975 22.0921 19.7252C22.0514 19.7692 22.0228 19.823 22.009 19.8813C21.9852 19.9622 21.9729 20.0461 21.9724 20.1305V32.7921C21.9724 33.1077 21.9957 33.4067 22.0505 33.7273C22.107 34.0762 22.2 34.4499 22.3163 34.7855C22.421 35.1044 22.5489 35.3885 22.7316 35.6742C22.9309 35.9898 23.205 36.3055 23.5041 36.5995C24.1299 37.2175 24.8672 37.7113 25.6769 38.0547C26.0756 38.2308 26.4859 38.382 26.9228 38.5065C27.3879 38.6394 27.8863 38.7458 28.378 38.8272C28.8564 38.9102 29.3315 38.9667 29.7734 38.9767C30.1937 38.9899 30.584 38.96 31.0193 38.9036C31.4944 38.8471 32.021 38.7607 32.4579 38.6776C33.2073 38.5419 33.9417 38.3333 34.6506 38.0547C35.1091 37.872 35.5859 37.6477 36.0095 37.3736C36.4198 37.1078 36.7803 36.7922 37.1225 36.4483C37.4547 36.1128 37.7753 35.7506 38.0112 35.4084C38.2172 35.1094 38.3601 34.8303 38.4631 34.4831C38.5793 34.1011 38.6458 33.631 38.6906 33.2373C38.7338 32.8668 38.7571 32.5612 38.7853 32.1243C38.8136 31.709 38.8451 31.1774 38.8451 31.1325V20.0441C38.8451 19.9943 38.8285 19.878 38.8069 19.8032C38.7973 19.761 38.7786 19.7213 38.7521 19.6869" fill="black"/>
</svg>
