<svg width="139" height="38" viewBox="0 0 139 38" fill="none" xmlns="http://www.w3.org/2000/svg">
<path fill-rule="evenodd" clip-rule="evenodd" d="M110.644 18.9741C110.644 18.2827 111.036 17.9369 111.842 17.9369H113.571C114.401 17.9369 115.092 18.3288 115.645 18.928L126.155 29.9678C126.501 30.3135 126.938 30.3826 126.938 29.9678V18.8128C126.938 18.2596 127.215 17.9369 127.906 17.9369H129.612C130.142 17.9369 130.58 18.1674 130.58 18.7897V35.7527C130.58 36.7207 130.488 36.9281 129.635 36.9281H128.045C127.376 36.9281 127.008 36.7899 126.547 36.3059L115.322 24.4824C114.838 23.9524 114.354 23.9524 114.331 24.6207V36.0754C114.331 36.6055 114.078 36.9051 113.456 36.9051H111.52C110.943 36.9051 110.667 36.6516 110.644 36.1215V18.9741ZM100.71 17.9369H103.384C103.73 17.9369 104.006 18.2135 104.006 18.5823V36.2828C104.006 36.6285 103.73 36.9281 103.384 36.9281H100.71C100.365 36.9281 100.088 36.6285 100.088 36.2828V18.5823C100.065 18.2366 100.365 17.9369 100.71 17.9369ZM71.4168 19.2507C71.4168 18.3748 71.8547 17.9369 72.7305 17.9369H75.0122C76.2338 17.9369 76.4181 18.2827 77.1096 19.5272L82.0878 28.7462C82.3414 29.2072 82.664 29.2072 82.9406 28.7462L88.3337 19.2276C88.7255 18.5131 89.1635 17.9369 89.7166 17.9369H92.4132C93.1968 17.9369 93.5655 18.0522 93.5886 19.1124V35.891C93.5886 36.6977 93.3351 36.9051 92.6206 36.9281H90.6846C89.9471 36.9281 89.7166 36.5594 89.7166 35.891V23.6066L83.0789 35.891C82.6179 36.7438 82.2261 36.7207 81.7652 35.891L75.0122 23.4223V35.891C74.9892 36.5824 74.7126 36.9051 74.1134 36.9281H72.4309C71.7856 36.9281 71.3938 36.6516 71.3938 35.891V19.2507H71.4168ZM51.7803 22.0855C51.7803 21.348 52.2643 21.0023 53.1401 21.0023H58.2797C60.4231 21.0023 62.5666 21.832 62.5666 23.791C62.5666 25.4504 61.1607 26.4184 58.5332 26.4184H53.1632C52.3565 26.4184 51.7803 26.0727 51.7803 25.3352V22.0855ZM47.77 19.1124C47.77 18.3748 48.254 17.9139 49.1298 17.9369H58.9711C63.3041 17.9369 66.7151 19.3198 66.7382 23.5836C66.7151 26.3954 65.4245 27.8013 62.5896 28.6771C61.8751 28.8845 61.7599 29.3224 62.1978 29.9908L66.5307 36.1906C66.8995 36.7207 66.7151 36.9281 66.1159 36.9512H63.4654C62.7279 36.9512 62.4513 36.882 62.0826 36.375L57.6574 30.2443C57.1504 29.5068 56.4359 29.2072 55.4679 29.2072H51.8725L51.8033 35.891C51.8033 36.5824 51.5037 36.9051 50.9275 36.9281H48.715C48.0005 36.9281 47.77 36.5363 47.77 35.891V19.1124ZM33.5266 23.6758C33.688 23.307 33.9184 23.284 34.1028 23.6758L37.5139 30.7283C37.7674 31.2584 37.583 31.535 36.8916 31.535H30.6687C30.1617 31.535 29.9543 31.2123 30.1847 30.7744L33.5266 23.6758ZM31.8902 19.4811C32.3512 18.5592 32.6278 17.9369 34.1028 17.96C35.5087 17.96 35.7853 18.4901 36.2693 19.435L44.6356 35.7297C45.1426 36.7438 44.8891 36.9512 43.9672 36.9512H41.478C40.7175 36.9512 40.51 36.859 40.2335 36.2828L39.542 34.8539C39.3116 34.3699 39.1041 34.2777 38.09 34.2777H29.4703C28.8019 34.2777 28.5023 34.439 28.2948 34.8769L27.6956 36.1445C27.3729 36.8359 27.1655 36.9512 26.4049 36.9512H24.515C23.8466 36.9512 23.6162 36.6516 23.9388 35.9832L31.8902 19.4811ZM18.1539 22.4773C18.8453 22.823 19.3063 22.8691 19.5598 22.4082L20.4356 20.7487C20.7352 20.2417 20.5739 19.8499 20.136 19.5964C16.1718 17.3838 8.86573 16.7385 4.57888 19.2967C-0.768153 22.5695 -1.43653 30.4518 2.59679 34.0933C6.7684 38.1727 14.2589 37.6887 20.0899 35.7066C21.1501 35.2918 21.2653 34.8539 21.2653 33.3097V27.7552C21.2653 26.9485 20.7583 26.4184 19.9286 26.3954H12.2998C11.7236 26.3954 11.4471 26.695 11.4471 27.2482V28.4005C11.4471 28.9306 11.7697 29.2072 12.392 29.2072H16.8171C17.4855 29.2072 17.7621 29.4838 17.7621 29.9908V32.987C12.9451 34.8078 7.78249 34.2777 5.66212 31.6272C2.91946 27.8704 4.74021 22.339 8.56611 21.5093C11.9541 20.6796 15.1577 21.0023 18.1539 22.4773Z" fill="#231F20"/>
<path fill-rule="evenodd" clip-rule="evenodd" d="M119.563 0.651093L113.64 10.9994C112.902 12.1057 113.225 13.2581 114.562 13.2581L126.57 13.2351C128.206 13.2351 128.46 12.3362 127.538 10.8151L121.707 0.628047C121.153 -0.201665 120.07 -0.224715 119.563 0.651093Z" fill="#1D9DD8"/>
<path d="M138.301 35.0612C138.301 36.1906 137.402 37.0894 136.25 37.0894C135.097 37.0894 134.175 36.1906 134.175 35.0612C134.175 33.9319 135.097 33.0561 136.25 33.0561C137.379 33.033 138.301 33.9319 138.301 35.0612ZM134.682 35.0612C134.682 35.9601 135.351 36.6746 136.25 36.6746C137.125 36.6976 137.771 35.9601 137.771 35.0843C137.771 34.1854 137.102 33.471 136.203 33.471C135.351 33.4479 134.682 34.1624 134.682 35.0612ZM135.904 36.0984H135.443V34.0932C135.627 34.0702 135.881 34.0241 136.227 34.0241C136.595 34.0241 136.78 34.0932 136.918 34.1854C137.033 34.2776 137.125 34.4159 137.125 34.6233C137.125 34.8769 136.941 35.0382 136.711 35.1073V35.1304C136.895 35.1995 137.01 35.3609 137.056 35.6144C137.125 35.914 137.171 36.0292 137.195 36.0984H136.711C136.641 36.0292 136.618 35.8449 136.549 35.6144C136.503 35.407 136.388 35.3148 136.134 35.3148H135.904V36.0984ZM135.927 34.969H136.157C136.411 34.969 136.618 34.8769 136.618 34.6694C136.618 34.485 136.48 34.3698 136.18 34.3698C136.065 34.3698 135.973 34.3929 135.927 34.3929V34.969Z" fill="#231F20"/>
</svg>
