<svg width="127" height="21" viewBox="0 0 127 21" fill="none" xmlns="http://www.w3.org/2000/svg">
<path d="M116.062 16.5639C116.037 16.0494 115.615 15.957 115.185 15.957C114.822 15.957 114.463 15.957 114.103 15.957C114.103 16.7676 114.103 17.5788 114.103 18.3899C114.203 18.3899 114.306 18.3899 114.407 18.3899C114.407 18.0166 114.407 17.6428 114.407 17.2685C114.592 17.2685 114.779 17.2685 114.963 17.2685C115.199 17.6428 115.434 18.0166 115.67 18.3899C115.791 18.3899 115.913 18.3899 116.033 18.3899C115.783 18.015 115.535 17.6402 115.284 17.2653C115.757 17.2449 116.085 17.0826 116.062 16.5639ZM114.407 17.0317C114.407 16.7435 114.407 16.4547 114.407 16.1676C114.644 16.1676 114.879 16.1676 115.115 16.1676C115.417 16.1676 115.733 16.2269 115.733 16.6007C115.733 16.974 115.417 17.0317 115.115 17.0317C114.879 17.0317 114.644 17.0317 114.407 17.0317Z" fill="#231F20"/>
<path d="M114.93 14.9951C113.704 14.9951 112.711 15.9711 112.711 17.1765C112.711 18.3808 113.704 19.3558 114.93 19.3558C116.153 19.3558 117.145 18.3808 117.145 17.1765C117.145 15.9711 116.153 14.9951 114.93 14.9951ZM114.93 19.0686C113.872 19.0686 113.068 18.1918 113.068 17.1765C113.068 16.159 113.872 15.2823 114.93 15.2823C115.985 15.2823 116.787 16.1596 116.787 17.1765C116.787 18.1918 115.984 19.0686 114.93 19.0686Z" fill="#231F20"/>
<path d="M45.1822 9.14941C45.6294 14.7722 40.9362 19.7287 35.2516 19.9014C29.2442 20.0846 24.8969 14.9281 26.0836 9.14941C32.4507 9.14941 38.8162 9.14941 45.1822 9.14941Z" fill="#EF3E42"/>
<path d="M44.586 6.57829C43.1826 3.03297 39.7067 0.911441 35.8988 1.00909C32.139 1.10517 28.7084 3.31437 27.0029 6.57829C32.8636 6.57829 38.7248 6.57829 44.586 6.57829Z" fill="#EF3E42"/>
<path d="M6.83732 9.149C10.2594 9.149 13.6814 9.149 17.1024 9.149C17.8116 9.149 18.4274 8.58305 18.4925 7.88795C18.5603 7.16188 18.0048 6.5786 17.2636 6.5786C13.1681 6.5786 9.07209 6.5786 4.97661 6.5786C5.49635 5.09075 6.01716 3.60238 6.53743 2.11453C6.67083 1.73285 7.04596 1.46143 7.45898 1.46143C11.0646 1.46143 14.6702 1.46143 18.2759 1.46143C21.9599 1.46143 24.7251 4.44133 24.3836 8.04808C24.0586 11.5031 20.9968 14.2473 17.4722 14.2494C15.2193 14.2504 12.9669 14.2509 10.7146 14.2515C10.0865 14.252 9.54541 14.6405 9.35331 15.1907C8.94403 16.3604 8.53474 17.5322 8.12493 18.7024C7.99153 19.0841 7.61906 19.356 7.20605 19.356C5.54598 19.356 3.88484 19.356 2.2253 19.356C1.3427 19.356 0.798951 18.5323 1.0823 17.7207C1.7776 15.7304 2.47396 13.7396 3.1698 11.7478C3.70234 10.2232 5.18472 9.149 6.83732 9.149Z" fill="#231F20"/>
<path d="M102.098 19.3555C101.715 17.9443 101.33 16.5326 100.946 15.1198C100.802 14.5838 100.343 14.2504 99.7852 14.2504C99.2532 14.2509 98.7212 14.2509 98.1886 14.2509C97.5611 14.2515 97.019 14.64 96.8269 15.1902C96.4186 16.3599 96.0094 17.5317 95.6001 18.7019C95.4661 19.0836 95.0931 19.3555 94.6801 19.3555C93.0211 19.3555 91.3589 19.3555 89.6999 19.3555C88.8173 19.3555 88.273 18.5318 88.5564 17.7201C89.2533 15.7299 89.9475 13.7391 90.6444 11.7472C91.177 10.2232 92.6583 9.149 94.3109 9.149C97.7329 9.149 101.154 9.149 104.577 9.149C105.286 9.149 105.901 8.58305 105.967 7.88795C106.034 7.16188 105.478 6.5786 104.737 6.5786C100.641 6.5786 96.5456 6.5786 92.4507 6.5786C92.9704 5.09075 93.4907 3.60238 94.011 2.11453C94.1438 1.73285 94.5179 1.46143 94.9336 1.46143C98.5381 1.46143 102.145 1.46143 105.749 1.46143C109.433 1.46143 112.2 4.44133 111.858 8.04808C111.629 10.4846 110.039 12.5662 107.885 13.5842C108.409 15.5005 108.933 17.4183 109.458 19.356C107.005 19.3555 104.552 19.3555 102.098 19.3555Z" fill="#231F20"/>
<path d="M56.9188 6.57811C57.382 5.25249 57.8468 3.92581 58.3094 2.59914C58.5074 2.03581 58.1216 1.46094 57.5085 1.46094C55.6873 1.46094 53.8666 1.46094 52.0454 1.46094C51.6323 1.46094 51.2577 1.73236 51.1238 2.11404C50.6035 3.60189 50.0833 5.09026 49.563 6.57811C52.0155 6.57811 54.4669 6.57811 56.9188 6.57811Z" fill="#231F20"/>
<path d="M61.4612 19.3559C56.5775 19.3559 51.695 19.3559 46.8119 19.3559C45.9298 19.3559 45.3855 18.5322 45.6694 17.7206C46.6689 14.864 47.6667 12.0065 48.6657 9.14941C51.1171 9.14941 53.5696 9.14941 56.0215 9.14941C55.6789 10.1285 55.3374 11.1071 54.9948 12.0852C54.7115 12.8974 55.2681 13.7216 56.1491 13.7216C58.2291 13.7216 60.3096 13.7216 62.3902 13.7216C63.2717 13.7216 63.8347 14.5438 63.5513 15.3539C63.1613 16.4695 62.7707 17.5862 62.3817 18.7023C62.2461 19.084 61.8731 19.3559 61.4612 19.3559Z" fill="#231F20"/>
<path d="M78.3777 1.80376C77.0293 3.39556 75.6803 4.98736 74.3308 6.57811C77.9636 6.57811 81.5981 6.57811 85.2331 6.57811C85.097 5.12281 84.9604 3.66646 84.8243 2.21011C84.7827 1.77016 84.4172 1.46094 83.97 1.46094C82.3542 1.46094 80.7379 1.46094 79.1216 1.46094C78.8334 1.46094 78.5618 1.58746 78.3777 1.80376Z" fill="#231F20"/>
<path d="M79.8516 19.3559C81.6888 19.3559 83.525 19.3559 85.3622 19.3559C85.9155 19.3559 86.3809 18.8603 86.3296 18.3138C86.0441 15.2594 85.7597 12.2039 85.4737 9.14941C81.0324 9.14941 76.5933 9.14941 72.1531 9.14941C69.8559 11.86 67.5587 14.57 65.261 17.2811C64.5619 18.1043 65.0507 19.3559 66.1702 19.3559C67.6307 19.3559 69.0902 19.3559 70.5491 19.3559C70.8383 19.3559 71.112 19.2147 71.2945 18.9989C72.501 17.5772 73.7054 16.155 74.9108 14.7333C75.175 14.4204 75.5698 14.2498 75.9839 14.2498C76.4775 14.2498 76.9695 14.2498 77.4626 14.2498C78.1045 14.2498 78.6317 14.6871 78.6909 15.3203C78.7929 16.4107 78.8953 17.5011 78.9962 18.5905C79.0383 19.031 79.4044 19.3559 79.8516 19.3559Z" fill="#231F20"/>
</svg>
