<svg width="36" height="36" viewBox="0 0 36 36" fill="none" xmlns="http://www.w3.org/2000/svg">
<g clip-path="url(#clip0)">
<path d="M22.5209 12.9074H13.5996C13.3618 12.9074 13.1336 12.8129 12.9654 12.6447C12.7972 12.4765 12.7028 12.2484 12.7028 12.0105V8.47029C12.7069 8.23517 12.8032 8.01108 12.9709 7.84627C13.1387 7.68147 13.3645 7.58914 13.5996 7.58918H14.5437C14.4868 6.64723 14.805 5.72105 15.4288 5.01296C16.0526 4.30487 16.9312 3.87242 17.8728 3.81006C18.8144 3.7477 19.7424 4.06051 20.4542 4.68016C21.1659 5.2998 21.6034 6.17593 21.6713 7.11715C21.6871 7.2741 21.6871 7.43223 21.6713 7.58918H22.5681C22.795 7.6011 23.0089 7.6987 23.1667 7.86225C23.3244 8.02581 23.4141 8.24312 23.4178 8.47029V12.0105C23.4178 12.2484 23.3233 12.4765 23.1551 12.6447C22.9869 12.8129 22.7588 12.9074 22.5209 12.9074Z" fill="#4C2F92"/>
<path d="M25.1958 9.33569V12.0105C25.2063 12.3683 25.1449 12.7246 25.0152 13.0583C24.8855 13.392 24.6902 13.6962 24.4407 13.953C24.1913 14.2097 23.8929 14.4138 23.5631 14.5532C23.2333 14.6925 22.879 14.7642 22.521 14.764H13.5997C12.8902 14.764 12.2099 14.4822 11.7083 13.9806C11.2066 13.479 10.9248 12.7986 10.9248 12.0892V9.33569C10.2154 9.33569 9.53507 9.6175 9.03344 10.1191C8.53181 10.6208 8.25 11.3011 8.25 12.0105V28.0752C8.25 28.7846 8.53181 29.465 9.03344 29.9666C9.53507 30.4682 10.2154 30.75 10.9248 30.75H25.1958C25.9052 30.75 26.5856 30.4682 27.0872 29.9666C27.5888 29.465 27.8706 28.7846 27.8706 28.0752V12.0105C27.8706 11.3011 27.5888 10.6208 27.0872 10.1191C26.5856 9.6175 25.9052 9.33569 25.1958 9.33569ZM13.5997 28.0752H11.9003C11.6625 28.0752 11.4344 27.9807 11.2662 27.8125C11.098 27.6443 11.0035 27.4162 11.0035 27.1784C11.0075 26.9418 11.1033 26.716 11.2707 26.5487C11.438 26.3813 11.6638 26.2855 11.9003 26.2815H13.6783C13.9149 26.2855 14.1407 26.3813 14.308 26.5487C14.4753 26.716 14.5711 26.9418 14.5752 27.1784C14.5752 27.4162 14.4807 27.6443 14.3125 27.8125C14.1443 27.9807 13.9162 28.0752 13.6783 28.0752H13.5997ZM13.5997 23.6067H11.9003C11.7829 23.6238 11.6632 23.6173 11.5482 23.5878C11.4332 23.5583 11.3252 23.5062 11.2305 23.4346C11.1358 23.363 11.0563 23.2734 10.9965 23.1708C10.9367 23.0683 10.8979 22.9548 10.8823 22.8372C10.8666 22.7195 10.8745 22.5999 10.9055 22.4853C10.9365 22.3707 10.9899 22.2633 11.0626 22.1695C11.1354 22.0757 11.226 21.9973 11.3293 21.9388C11.4326 21.8803 11.5465 21.8429 11.6643 21.8287H13.6783C13.9126 21.8006 14.1485 21.8659 14.3349 22.0104C14.5214 22.155 14.6433 22.3673 14.6744 22.6011C14.7054 22.835 14.643 23.0717 14.5008 23.2599C14.3585 23.4481 14.1478 23.5727 13.9143 23.6067C13.8364 23.6224 13.7562 23.6224 13.6783 23.6067H13.5997ZM13.5997 19.1539H11.9003C11.6625 19.1539 11.4344 19.0594 11.2662 18.8912C11.098 18.723 11.0035 18.4949 11.0035 18.257C11.0075 18.0204 11.1033 17.7947 11.2707 17.6273C11.438 17.46 11.6638 17.3642 11.9003 17.3602H13.6783C13.9094 17.3721 14.1273 17.4714 14.2879 17.6379C14.4486 17.8044 14.54 18.0257 14.5437 18.257C14.5437 18.4949 14.4492 18.723 14.281 18.8912C14.1128 19.0594 13.8847 19.1539 13.6469 19.1539H13.5997ZM24.299 28.0752H17.1713C16.9335 28.0752 16.7053 27.9807 16.5372 27.8125C16.369 27.6443 16.2745 27.4162 16.2745 27.1784C16.2785 26.9418 16.3743 26.716 16.5416 26.5487C16.709 26.3813 16.9347 26.2855 17.1713 26.2815H24.299C24.5355 26.2855 24.7613 26.3813 24.9286 26.5487C25.096 26.716 25.1918 26.9418 25.1958 27.1784C25.1958 27.4162 25.1013 27.6443 24.9331 27.8125C24.7649 27.9807 24.5368 28.0752 24.299 28.0752ZM24.299 23.6067H17.1713C17.0539 23.6238 16.9342 23.6173 16.8192 23.5878C16.7042 23.5583 16.5962 23.5062 16.5015 23.4346C16.4068 23.363 16.3273 23.2734 16.2675 23.1708C16.2077 23.0683 16.1689 22.9548 16.1532 22.8372C16.1376 22.7195 16.1455 22.5999 16.1765 22.4853C16.2074 22.3707 16.2608 22.2633 16.3336 22.1695C16.4063 22.0757 16.497 21.9973 16.6003 21.9388C16.7036 21.8803 16.8174 21.8429 16.9353 21.8287H24.299C24.5332 21.8006 24.7691 21.8659 24.9555 22.0104C25.142 22.155 25.2639 22.3673 25.295 22.6011C25.326 22.835 25.2637 23.0717 25.1214 23.2599C24.9791 23.4481 24.7684 23.5727 24.535 23.6067C24.4571 23.6224 24.3768 23.6224 24.299 23.6067ZM24.299 19.1539H17.1713C16.9335 19.1539 16.7053 19.0594 16.5372 18.8912C16.369 18.723 16.2745 18.4949 16.2745 18.257C16.2785 18.0204 16.3743 17.7947 16.5416 17.6273C16.709 17.46 16.9347 17.3642 17.1713 17.3602H24.299C24.5355 17.3642 24.7613 17.46 24.9286 17.6273C25.096 17.7947 25.1918 18.0204 25.1958 18.257C25.1958 18.4949 25.1013 18.723 24.9331 18.8912C24.7649 19.0594 24.5368 19.1539 24.299 19.1539Z" fill="#4C2F92"/>
</g>
<rect x="0.5" y="0.5" width="35" height="35" stroke="white"/>
<defs>
<clipPath id="clip0">
<rect width="19.6206" height="27" fill="white" transform="translate(8.25 3.75)"/>
</clipPath>
</defs>
</svg>
