<svg width="36" height="36" viewBox="0 0 36 36" fill="none" xmlns="http://www.w3.org/2000/svg">
<g clip-path="url(#clip0)">
<path d="M3 21.5719V18.1498C3.00417 16.9229 3.49449 15.7477 4.36352 14.8816C5.23256 14.0155 6.40945 13.5292 7.63636 13.5292H17.3664C18.5809 13.5458 19.74 14.0399 20.593 14.9047C21.4459 15.7694 21.924 16.9352 21.9239 18.1498V21.5877C21.9239 22.8131 21.4371 23.9884 20.5706 24.8549C19.7041 25.7215 18.5288 26.2083 17.3033 26.2083H10.1596L7.54174 30.75L3 21.5719Z" fill="#4C2F92"/>
<path d="M33.2941 9.77597C33.2859 8.57816 32.8064 7.43176 31.9594 6.58476C31.1124 5.73776 29.966 5.25826 28.7682 5.25H14.3229C13.1251 5.25826 11.9787 5.73776 11.1317 6.58476C10.2847 7.43176 9.80517 8.57816 9.79691 9.77597V11.9365H17.3192C18.9601 11.9406 20.5325 12.5954 21.6913 13.7573C22.8502 14.9191 23.501 16.4931 23.501 18.134V19.4429H26.3396L28.8785 23.8428L32.6949 17.2352H32.5687C32.9987 16.5382 33.2279 15.7359 33.231 14.917L33.2941 9.77597Z" fill="#4C2F92"/>
<path d="M17.3664 15.1062H9.81258C9.86512 16.2694 10.3624 17.368 11.2018 18.1751C12.0411 18.9822 13.1584 19.436 14.3228 19.4429H20.3469V18.1498C20.3205 17.3617 19.9998 16.6121 19.4481 16.0488C18.8964 15.4854 18.1537 15.1491 17.3664 15.1062Z" fill="#4C2F92"/>
</g>
<rect x="0.5" y="0.5" width="35" height="35" stroke="white"/>
<defs>
<clipPath id="clip0">
<rect width="30.2941" height="25.5" fill="white" transform="translate(3 5.25)"/>
</clipPath>
</defs>
</svg>
