<svg width="36" height="36" viewBox="0 0 36 36" fill="none" xmlns="http://www.w3.org/2000/svg">
<g clip-path="url(#clip0)">
<path d="M15.765 9.89367H19.3502C20.0564 9.82921 20.7084 9.48753 21.1633 8.94342C21.6182 8.39932 21.839 7.69714 21.7773 6.99061C21.738 6.35364 21.4714 5.75193 21.0259 5.29488C20.5805 4.83783 19.9859 4.55578 19.3502 4.50001H15.765C15.4108 4.47814 15.0558 4.52623 14.7203 4.64155C14.3847 4.75687 14.0751 4.93716 13.8092 5.17211C13.2723 5.64663 12.9458 6.31503 12.9016 7.03027C12.8574 7.74551 13.0992 8.44901 13.5737 8.986C14.0482 9.52299 14.7166 9.84949 15.4318 9.89367H15.765Z" fill="#4C2F92"/>
<path d="M28.9477 14.637L25.3625 11.0518C25.1933 10.8852 24.9654 10.7917 24.728 10.7917C24.4905 10.7917 24.2626 10.8852 24.0934 11.0518C23.9315 11.2202 23.8411 11.4448 23.8411 11.6784C23.8411 11.912 23.9315 12.1366 24.0934 12.305L25.2515 13.4631L24.3314 14.3832C22.4833 12.6109 20.023 11.6195 17.4625 11.6155C14.9019 11.6115 12.4385 12.595 10.5849 14.3615C8.73123 16.1279 7.63023 18.5412 7.51102 21.0989C7.39181 23.6567 8.26357 26.1619 9.94486 28.0931C11.6261 30.0243 13.9874 31.2327 16.5372 31.4669C19.087 31.701 21.6289 30.9428 23.6338 29.3501C25.6387 27.7574 26.9521 25.4528 27.3007 22.9162C27.6493 20.3795 27.0062 17.8061 25.5053 15.7316L26.5364 14.7322L27.6945 15.8902C27.8673 16.0496 28.0939 16.1382 28.329 16.1382C28.5642 16.1382 28.7907 16.0496 28.9636 15.8902C29.1233 15.7197 29.2109 15.494 29.208 15.2604C29.205 15.0268 29.1117 14.8034 28.9477 14.637ZM17.5576 24.2345C16.9188 24.2445 16.2974 24.0261 15.8054 23.6185C15.3133 23.2109 14.983 22.6411 14.874 22.0115C14.7649 21.382 14.8842 20.7343 15.2105 20.1849C15.5367 19.6356 16.0484 19.2208 16.6533 19.0154V16.1758C16.6216 15.9362 16.6853 15.6939 16.8307 15.5009C16.9762 15.308 17.1917 15.18 17.4307 15.1446C17.6684 15.1131 17.9089 15.1773 18.0993 15.323C18.2897 15.4688 18.4144 15.6842 18.4459 15.9219C18.4618 16.0058 18.4618 16.0919 18.4459 16.1758V19.0154C19.0314 19.2363 19.5218 19.6541 19.8331 20.1969C20.1444 20.7398 20.2572 21.374 20.1522 21.991C20.0472 22.6079 19.7309 23.1691 19.2575 23.5784C18.7842 23.9877 18.1832 24.2197 17.5576 24.2345Z" fill="#4C2F92"/>
</g>
<rect x="0.5" y="0.5" width="35" height="35" stroke="white"/>
<defs>
<clipPath id="clip0">
<rect width="21.7015" height="27" fill="white" transform="translate(7.5 4.5)"/>
</clipPath>
</defs>
</svg>
