<svg width="36" height="36" viewBox="0 0 36 36" fill="none" xmlns="http://www.w3.org/2000/svg">
<g clip-path="url(#clip0)">
<path d="M23.1437 9.15816C21.9436 7.8647 20.3424 7.14209 18.6764 7.14209C17.0105 7.14209 15.4093 7.8647 14.2092 9.15816L13.9625 9.3729L13.757 9.15816C12.5569 7.8647 10.9557 7.14209 9.28975 7.14209C7.62376 7.14209 6.02259 7.8647 4.82251 9.15816C3.62451 10.6549 2.96204 12.5938 2.96204 14.6033C2.96204 16.6129 3.62451 18.5518 4.82251 20.0485C8.34423 23.8218 10.0845 24.5734 13.4966 28.2239C13.6323 28.372 13.8142 28.4548 14.0037 28.4548C14.1931 28.4548 14.375 28.372 14.5107 28.2239C17.9228 24.5273 19.6631 23.7758 23.1437 20.0025C24.3303 18.5087 24.9858 16.5793 24.9858 14.5803C24.9858 12.5814 24.3303 10.652 23.1437 9.15816Z" fill="#4C2F92"/>
<path d="M33.0374 7.50175C32.5911 7.02361 31.9971 6.75672 31.3793 6.75672C30.7615 6.75672 30.1676 7.02361 29.7213 7.50175H29.639C29.1898 7.01808 28.5906 6.74792 27.9673 6.74792C27.3439 6.74792 26.7448 7.01808 26.2955 7.50175C25.8561 8.06157 25.6138 8.78126 25.6138 9.52643C25.6138 10.2716 25.8561 10.9913 26.2955 11.5511C27.5973 12.9469 28.2413 13.223 29.502 14.6188C29.5548 14.6716 29.6231 14.7008 29.6939 14.7008C29.7646 14.7008 29.8329 14.6716 29.8857 14.6188C31.1464 13.2383 31.7904 12.9623 33.0922 11.5511C33.5241 10.9839 33.7567 10.2601 33.7466 9.51487C33.7365 8.76968 33.4845 8.05408 33.0374 7.50175Z" fill="#4C2F92"/>
</g>
<rect x="0.5" y="0.5" width="35" height="35" stroke="white"/>
<defs>
<clipPath id="clip0">
<rect width="30.75" height="21.75" fill="white" transform="translate(3 6.75)"/>
</clipPath>
</defs>
</svg>
