<svg width="36" height="36" viewBox="0 0 36 36" fill="none" xmlns="http://www.w3.org/2000/svg">
<g clip-path="url(#clip0)">
<path d="M13.5 13.1999C13.503 12.546 13.2675 11.9133 12.8374 11.4206C12.4074 10.9278 11.8125 10.6088 11.1641 10.5233C10.5157 10.4377 9.85841 10.5916 9.31534 10.956C8.77227 11.3204 8.38073 11.8704 8.21408 12.5028C7.55327 12.2344 6.8131 12.2384 6.15523 12.5139C5.49735 12.7894 4.97521 13.314 4.70282 13.9732C4.57246 14.3 4.50369 14.6481 4.5 14.9999L4.5 20.3873C4.5033 21.1002 4.78709 21.7831 5.28999 22.2883C5.79289 22.7936 6.47447 23.0806 7.18732 23.0873C7.53979 23.09 7.88913 23.021 8.21408 22.8845C8.38073 23.5169 8.77227 24.0668 9.31534 24.4312C9.85841 24.7956 10.5157 24.9495 11.1641 24.864C11.8125 24.7784 12.4074 24.4594 12.8374 23.9667C13.2675 23.4739 13.503 22.8413 13.5 22.1873V20.3873H20.7V14.9492H13.5V13.1999Z" fill="#4C2F92"/>
<path d="M28.8 12.3C28.4563 12.3036 28.1165 12.3724 27.7986 12.5028C27.6225 11.8781 27.2274 11.3377 26.6854 10.9805C26.1435 10.6234 25.491 10.4734 24.8475 10.5581C24.204 10.6428 23.6126 10.9564 23.1814 11.4416C22.7503 11.9268 22.5084 12.551 22.5 13.2V22.1873C22.5084 22.8363 22.7503 23.4606 23.1814 23.9457C23.6126 24.4309 24.204 24.7446 24.8475 24.8292C25.491 24.9139 26.1435 24.7639 26.6854 24.4068C27.2274 24.0496 27.6225 23.5092 27.7986 22.8845C28.4594 23.1529 29.1995 23.1489 29.8574 22.8734C30.5153 22.5979 31.0374 22.0733 31.3098 21.4141C31.4361 21.0865 31.5006 20.7384 31.5 20.3873V14.9493C31.4867 14.242 31.1964 13.5682 30.6915 13.0728C30.1865 12.5774 29.5074 12.2999 28.8 12.3Z" fill="#4C2F92"/>
</g>
<rect x="0.5" y="0.5" width="35" height="35" stroke="white"/>
<defs>
<clipPath id="clip0">
<rect width="27" height="14.3873" fill="white" transform="translate(4.5 10.5)"/>
</clipPath>
</defs>
</svg>
