<svg width="50" height="50" viewBox="0 0 50 50" fill="none" xmlns="http://www.w3.org/2000/svg">
<path d="M25 50C38.8071 50 50 38.8071 50 25C50 11.1929 38.8071 0 25 0C11.1929 0 0 11.1929 0 25C0 38.8071 11.1929 50 25 50Z" fill="#461496"/>
<path d="M8.729 30.2998C7.99522 30.31 7.26706 30.1705 6.589 29.8898C5.97998 29.6396 5.42929 29.2661 4.97153 28.7929C4.51377 28.3196 4.15882 27.7568 3.929 27.1398C3.6868 26.501 3.56475 25.823 3.569 25.1398C3.5637 24.4334 3.6997 23.733 3.969 23.0798C4.22178 22.4613 4.59193 21.8976 5.059 21.4198C5.5421 20.9339 6.11728 20.5491 6.75088 20.2881C7.38448 20.0271 8.06377 19.8951 8.749 19.8998C9.45037 19.894 10.1463 20.023 10.799 20.2798C11.4131 20.5206 11.9713 20.8847 12.439 21.3498C12.9034 21.8163 13.2705 22.3703 13.519 22.9798C13.7843 23.6339 13.9168 24.3341 13.909 25.0398V25.7798H5.609C5.70837 26.514 6.06227 27.1899 6.609 27.6898C7.15567 28.1898 7.869 28.4398 8.749 28.4398C9.44233 28.4398 10.019 28.2865 10.479 27.9798C10.9299 27.6844 11.2708 27.2486 11.449 26.7398H13.749C13.3617 27.8465 12.7517 28.7165 11.919 29.3498C11.0863 29.9832 10.023 30.2998 8.729 30.2998ZM8.769 21.7998C8.08508 21.7837 7.41569 21.9986 6.869 22.4098C6.34338 22.8058 5.95235 23.354 5.749 23.9798H11.729C11.5417 23.2732 11.1917 22.7332 10.679 22.3598C10.1663 21.9865 9.52967 21.7998 8.769 21.7998Z" fill="white"/>
<path d="M14.985 24.5001C14.9781 23.8715 15.0901 23.2472 15.315 22.6601C15.5246 22.1163 15.8408 21.6199 16.245 21.2001C16.6497 20.7841 17.1368 20.4571 17.675 20.2401C18.2635 20.0067 18.8921 19.8912 19.525 19.9001C20.1676 19.8931 20.8056 20.0085 21.405 20.2401C21.9553 20.4521 22.4558 20.7755 22.875 21.1901C23.2873 21.6056 23.6135 22.0984 23.835 22.6401C24.074 23.2308 24.193 23.8631 24.185 24.5001V30.1001H22.045V24.5201C22.045 23.7601 21.8084 23.1401 21.335 22.6601C20.8617 22.1801 20.2584 21.9401 19.525 21.9401C18.7784 21.9401 18.1884 22.1801 17.755 22.6601C17.3217 23.1401 17.1117 23.7401 17.125 24.4601V30.1001H14.985V24.5001Z" fill="white"/>
<path d="M30.243 30.3C29.6079 30.3007 28.979 30.1749 28.393 29.93C27.8029 29.6853 27.2637 29.3326 26.803 28.89C26.3248 28.4267 25.9441 27.8725 25.683 27.26C25.3944 26.577 25.2514 25.8414 25.263 25.1C25.2516 24.3596 25.3911 23.6247 25.673 22.94C25.9283 22.3264 26.3021 21.7691 26.773 21.3C27.2303 20.8485 27.7747 20.4946 28.373 20.26C28.9744 20.0212 29.6158 19.899 30.263 19.9C30.9102 19.8956 31.5498 20.0392 32.133 20.32C32.6956 20.5865 33.1912 20.9761 33.583 21.46V20.1H35.723V29.92C35.7327 30.6273 35.6071 31.3299 35.353 31.99C35.1237 32.5828 34.7728 33.121 34.323 33.57C33.8783 34.006 33.3514 34.3494 32.773 34.58C32.159 34.8239 31.5035 34.9461 30.843 34.94C30.1955 34.9486 29.5508 34.854 28.933 34.66C28.3957 34.489 27.8941 34.2213 27.453 33.87C27.0358 33.5331 26.6834 33.1231 26.413 32.66C26.1362 32.1837 25.9243 31.6725 25.783 31.14H28.1C28.2754 31.6639 28.5941 32.1281 29.02 32.48C29.4326 32.8133 30.046 32.98 30.86 32.98C31.2422 32.9836 31.6207 32.9051 31.97 32.75C32.3007 32.6029 32.597 32.3883 32.84 32.12C33.0863 31.8425 33.2764 31.5199 33.4 31.17C33.5356 30.7881 33.6033 30.3853 33.6 29.98V28.68C33.2115 29.1879 32.7076 29.5958 32.13 29.87C31.5418 30.1549 30.8965 30.3019 30.243 30.3ZM30.543 28.34C30.9767 28.3439 31.4062 28.2552 31.803 28.08C32.1789 27.9143 32.5186 27.6765 32.803 27.38C33.0862 27.0816 33.3102 26.7321 33.463 26.35C33.6249 25.9464 33.7065 25.5149 33.703 25.08C33.7053 24.6517 33.6237 24.227 33.463 23.83C33.3093 23.4477 33.0843 23.0982 32.8 22.8C32.5156 22.5035 32.1759 22.2657 31.8 22.1C31.4032 21.9248 30.9737 21.8362 30.54 21.84C30.1138 21.8371 29.6917 21.9222 29.3 22.09C28.9203 22.2516 28.5763 22.4868 28.288 22.782C27.9997 23.0772 27.7726 23.4266 27.62 23.81C27.458 24.2137 27.3765 24.6451 27.38 25.08C27.3771 25.5181 27.4586 25.9527 27.62 26.36C27.7702 26.746 27.9963 27.0979 28.2849 27.3951C28.5734 27.6922 28.9186 27.9285 29.3 28.09C29.6923 28.2596 30.1155 28.3461 30.543 28.344V28.34Z" fill="white"/>
<path d="M40.5511 29.5841L36.4111 20.1001H38.7111L41.6311 27.0401L44.3911 20.1001H46.6511L40.6111 34.7201H38.4111L40.5511 29.5841Z" fill="white"/>
</svg>
