<svg width="30" height="30" viewBox="0 0 30 30" fill="none" xmlns="http://www.w3.org/2000/svg">
<path d="M6.0473 3.99242L6.02615 7.56899L5.6877 7.59011C5.49733 7.60419 5.2999 7.57603 5.24349 7.52674C5.15888 7.45634 5.14478 6.8931 5.14478 4.0065C5.14478 0.0990256 5.21529 0.472172 4.51019 0.690427L4.12239 0.817156L4.08714 4.18955L4.05188 7.56899L3.67818 7.59011C3.4596 7.60419 3.25512 7.57603 3.19872 7.52674C3.11411 7.45634 3.1 6.94942 3.1 4.46413C3.1 1.71834 3.09295 1.47896 2.98014 1.47896C2.91668 1.47896 2.55708 1.78874 2.17633 2.16893C1.56995 2.78145 1.45008 2.95042 1.13984 3.59815C0.54756 4.80911 0.540509 4.83728 0.512306 7.61827L0.477051 10.0684H5.20824C7.81004 10.0684 9.93942 10.0402 9.93942 10.012C9.93942 9.92051 10.7785 9.2587 11.2862 8.95596C11.8996 8.58282 12.6117 8.28712 13.3662 8.08998C14.2899 7.85061 15.7635 7.85765 16.7154 8.1111C17.8435 8.41384 18.9505 8.98412 19.7896 9.69521L20.2268 10.0684H24.9227H29.6257L29.5975 7.58307C29.5693 5.26675 29.5552 5.06961 29.4071 4.57678C29.111 3.57703 28.7514 2.99971 27.8911 2.14077C27.0309 1.28887 26.4598 0.929803 25.4515 0.620022L24.9227 0.458091L16.4827 0.436969L8.03567 0.415848L8.02157 3.99242L8.00041 7.56899L7.66197 7.59011C7.47159 7.60419 7.27416 7.57603 7.21776 7.52674C7.13315 7.45634 7.11904 6.88606 7.11904 3.93609V0.422888H6.59022H6.0614L6.0473 3.99242ZM26.2976 3.13348C26.4175 3.19684 26.5726 3.36581 26.6502 3.5207C26.7771 3.77416 26.7912 3.93609 26.7912 5.47092C26.7912 7.89285 26.8687 7.8154 24.4714 7.8154C22.6523 7.8154 22.4337 7.76612 22.201 7.30849C22.0671 7.04799 22.06 6.92126 22.0812 5.27379L22.1023 3.50662L22.3632 3.26725L22.6311 3.02787H24.3586C25.7759 3.02787 26.1284 3.04899 26.2976 3.13348Z" fill="#CBCBCB"/>
<path d="M14.2052 9.41383C11.7232 9.75881 9.70667 11.7442 9.30477 14.2436C9.1849 14.9688 9.24836 16.1445 9.44579 16.8275C9.72078 17.792 10.0945 18.3975 10.9265 19.2212C11.7514 20.052 12.2873 20.397 13.1264 20.6645C16.4262 21.7065 19.8107 19.876 20.6638 16.581C20.8542 15.8488 20.8683 14.4689 20.6991 13.8001C20.3889 12.5961 20.0081 11.9414 19.0703 11.0191C18.1608 10.1108 17.3781 9.70249 16.1583 9.46311C15.6718 9.37159 14.6987 9.34342 14.2052 9.41383ZM15.7564 11.1599C16.3064 11.2725 17.4063 11.7935 17.7307 12.0963C18.3018 12.6243 18.7671 13.3847 19.0069 14.1943C19.1832 14.7716 19.162 15.7291 18.9716 16.3346C18.4357 18.0314 16.814 19.2424 15.0865 19.2424C14.452 19.2424 13.9654 19.1156 13.2533 18.7777C11.8784 18.13 10.9758 16.6867 10.9758 15.1377C10.9688 13.2439 12.3437 11.5753 14.2475 11.1669C14.8398 11.0331 15.1571 11.0331 15.7564 11.1599Z" fill="#CBCBCB"/>
<path d="M0.505284 17.8619L0.526437 24.9587L0.688608 25.4868C0.99885 26.4936 1.35845 27.0639 2.21161 27.9228C3.08593 28.7888 3.67116 29.1478 4.69355 29.4435L5.25057 29.6055H15.0161H24.7817L25.3387 29.4435C26.4598 29.1197 27.2425 28.6339 28.0815 27.7397C28.6668 27.1202 29.1462 26.2894 29.4142 25.4164L29.5763 24.8883L29.5975 17.8267L29.6186 10.7722H25.2753C21.496 10.7722 20.9389 10.7862 20.9389 10.8778C20.9389 10.9341 21.0517 11.1594 21.1928 11.3706C22.5254 13.4616 22.6594 16.1441 21.5453 18.3688C20.4031 20.6359 18.3019 22.0933 15.7424 22.389C13.6835 22.6283 11.3003 21.7412 9.81959 20.1783C9.22731 19.5587 8.89591 19.0659 8.45875 18.1436C7.94403 17.0804 7.79596 16.3905 7.79596 15.1373C7.79596 14.3135 7.82417 13.9967 7.95108 13.4898C8.13441 12.7505 8.47285 11.9479 8.83245 11.3847C8.97347 11.1594 9.09334 10.9341 9.09334 10.8778C9.09334 10.7862 8.54336 10.7722 4.79226 10.7722H0.484131L0.505284 17.8619Z" fill="#CBCBCB"/>
</svg>
