<svg width="20" height="34" viewBox="0 0 20 34" fill="none" xmlns="http://www.w3.org/2000/svg">
<path d="M0.967765 2.75143C0.36669 2.18134 0.341569 1.23193 0.911657 0.630851C1.48174 0.0297755 2.43116 0.00465516 3.03224 0.574743L0.967765 2.75143ZM18 16.8382L19.0322 15.7499C19.3331 16.0352 19.5024 16.4323 19.5 16.847C19.4976 17.2616 19.3236 17.6567 19.0195 17.9385L18 16.8382ZM3.01948 32.7634C2.41181 33.3264 1.46275 33.2902 0.899703 32.6826C0.336658 32.0749 0.372839 31.1258 0.980516 30.5628L3.01948 32.7634ZM3.03224 0.574743L19.0322 15.7499L16.9678 17.9266L0.967765 2.75143L3.03224 0.574743ZM19.0195 17.9385L3.01948 32.7634L0.980516 30.5628L16.9805 15.7379L19.0195 17.9385Z" fill="#421095"/>
</svg>
