<svg width="20" height="34" viewBox="0 0 20 34" fill="none" xmlns="http://www.w3.org/2000/svg">
<path d="M19.0322 2.75143C19.6333 2.18134 19.6584 1.23193 19.0883 0.630851C18.5183 0.0297755 17.5688 0.00465516 16.9678 0.574743L19.0322 2.75143ZM2 16.8382L0.967765 15.7499C0.666925 16.0352 0.49761 16.4323 0.500025 16.847C0.502441 17.2616 0.676372 17.6567 0.980516 17.9385L2 16.8382ZM16.9805 32.7634C17.5882 33.3264 18.5373 33.2902 19.1003 32.6826C19.6633 32.0749 19.6272 31.1258 19.0195 30.5628L16.9805 32.7634ZM16.9678 0.574743L0.967765 15.7499L3.03224 17.9266L19.0322 2.75143L16.9678 0.574743ZM0.980516 17.9385L16.9805 32.7634L19.0195 30.5628L3.01948 15.7379L0.980516 17.9385Z" fill="#421095"/>
</svg>
