<svg width="34" height="20" viewBox="0 0 34 20" fill="none" xmlns="http://www.w3.org/2000/svg">
<path d="M32.9032 1.35453C33.1373 0.5738 32.9033 0 31.789 0H28.105C27.1682 0 26.7364 0.495792 26.5024 1.04217C26.5024 1.04217 24.6285 5.60872 21.9743 8.5753C21.1159 9.43371 20.7256 9.70722 20.2569 9.70722C20.0228 9.70722 19.684 9.43371 19.684 8.65331V1.35453C19.684 0.417785 19.4122 0 18.6314 0H12.8419C12.2563 0 11.9045 0.435081 11.9045 0.846988C11.9045 1.73477 13.2313 1.93975 13.3684 4.43795V9.86324C13.3684 11.0526 13.1533 11.2684 12.6849 11.2684C11.4361 11.2684 8.39806 6.68125 6.59605 1.43254C6.24289 0.412236 5.88876 0.000328703 4.94712 0.000328703H1.26314C0.210521 0.000328703 0 0.495792 0 1.04217C0 2.01808 1.24877 6.85782 5.81565 13.259C8.85991 17.6304 13.1494 20 17.0523 20C19.3942 20 19.684 19.4739 19.684 18.5671V15.2634C19.684 14.2108 19.906 14.0003 20.6472 14.0003C21.1939 14.0003 22.1307 14.2738 24.3162 16.3816C26.8144 18.8795 27.2263 20 28.6311 20H32.3154C33.368 20 33.8945 19.4739 33.5906 18.4353C33.2584 17.4 32.0657 15.8979 30.4834 14.1178C29.6246 13.1027 28.3367 12.0099 27.9463 11.4635C27.3996 10.7611 27.556 10.4485 27.9463 9.82407C27.9463 9.82407 32.4349 3.50121 32.9032 1.3542V1.35453Z" fill="#CBCBCB"/>
</svg>
